<svg xmlns="http://www.w3.org/2000/svg" width="31.613" height="31.612" viewBox="0 0 31.613 31.612"><g transform="translate(-0.001 -0.004)"><g transform="translate(0.001 0.004)"><g transform="translate(0)"><path d="M31.607,12.09a.5.5,0,0,0-.022-.107.527.527,0,0,0-.03-.091.473.473,0,0,0-.053-.081.5.5,0,0,0-.07-.082c-.008-.007-.012-.017-.021-.025L26.345,7.769V3.691A1.581,1.581,0,0,0,24.764,2.11h-5.71L16.768.335a1.562,1.562,0,0,0-1.922,0L12.559,2.11H6.849A1.581,1.581,0,0,0,5.268,3.691V7.77L.2,11.7c-.009.007-.013.017-.021.025a.494.494,0,0,0-.07.082.47.47,0,0,0-.053.081.52.52,0,0,0-.03.091.5.5,0,0,0-.022.105c0,.011-.006.021-.006.032V30.036a1.563,1.563,0,0,0,.309.93s0,.011.007.015.012.009.017.015a1.573,1.573,0,0,0,1.246.621H30.033a1.573,1.573,0,0,0,1.25-.624c0-.005.011-.007.014-.012s0-.01.007-.015a1.563,1.563,0,0,0,.309-.93V12.121C31.614,12.11,31.608,12.1,31.607,12.09ZM15.49,1.166a.505.505,0,0,1,.629,0l1.216.944H14.278ZM1.713,30.563l13.778-10.7a.506.506,0,0,1,.629,0L29.9,30.563Zm28.847-.821L16.768,19.029a1.563,1.563,0,0,0-1.922,0L1.053,29.741V12.924l8.634,6.7a.527.527,0,0,0,.646-.833L1.562,11.984,5.268,9.1v4.071a.527.527,0,1,0,1.054,0V3.691a.527.527,0,0,1,.527-.527H24.764a.527.527,0,0,1,.527.527v9.484a.527.527,0,1,0,1.054,0V9.1l3.707,2.881-8.787,6.823a.527.527,0,1,0,.646.832l8.65-6.716V29.741Z" transform="translate(-0.001 -0.004)"/><path d="M166.22,76.667V74.56a6.323,6.323,0,1,0-6.323,6.323.527.527,0,1,0,0-1.054,5.269,5.269,0,1,1,5.269-5.269v2.108a1.054,1.054,0,1,1-2.108,0V74.56a.527.527,0,1,0-1.054,0,2.108,2.108,0,1,1-2.108-2.108.527.527,0,1,0,0-1.054,3.161,3.161,0,1,0,2.13,5.491,2.1,2.1,0,0,0,4.193-.222Z" transform="translate(-144.091 -64.024)"/></g></g></g></svg>