<svg xmlns="http://www.w3.org/2000/svg" width="23.789" height="23.774" viewBox="0 0 23.789 23.774"><defs><style>.a{fill:#010002;}</style></defs><g transform="translate(0 -0.188)"><g transform="translate(0 0.188)"><path class="a" d="M23.778,18.95a1.15,1.15,0,0,1-.353,1.007l-3.349,3.324a1.885,1.885,0,0,1-.592.428,2.445,2.445,0,0,1-.718.227q-.025,0-.151.013t-.327.013a11.61,11.61,0,0,1-1.549-.164,11.763,11.763,0,0,1-2.619-.806,21.984,21.984,0,0,1-3.513-1.927A26.193,26.193,0,0,1,6.426,17.54,27.6,27.6,0,0,1,3.5,14.215a23.685,23.685,0,0,1-1.864-2.934A15.8,15.8,0,0,1,.583,8.839,12.96,12.96,0,0,1,.1,6.95,6.238,6.238,0,0,1,0,5.7q.025-.453.025-.5a2.448,2.448,0,0,1,.227-.718A1.887,1.887,0,0,1,.684,3.89L4.034.541A1.109,1.109,0,0,1,4.839.188a.94.94,0,0,1,.579.189,1.751,1.751,0,0,1,.428.466L8.542,5.955a1.226,1.226,0,0,1,.126.881,1.57,1.57,0,0,1-.428.806L7.005,8.876a.42.42,0,0,0-.088.164.621.621,0,0,0-.038.189,4.547,4.547,0,0,0,.453,1.209,11.1,11.1,0,0,0,.932,1.473,16.358,16.358,0,0,0,1.788,2,16.681,16.681,0,0,0,2.015,1.8,11.634,11.634,0,0,0,1.473.944,3.916,3.916,0,0,0,.907.365l.315.063a.6.6,0,0,0,.164-.038.42.42,0,0,0,.164-.088L16.525,15.5a1.543,1.543,0,0,1,1.058-.4,1.316,1.316,0,0,1,.68.151h.025l4.86,2.871A1.267,1.267,0,0,1,23.778,18.95Z" transform="translate(0 -0.188)"/></g></g></svg>